<?xml version="1.0" encoding="UTF-8"?>
<svg width="88px" height="88px" viewBox="0 0 88 88" version="1.1" xmlns="http://www.w3.org/2000/svg" xmlns:xlink="http://www.w3.org/1999/xlink">
    <!-- Generator: Sketch 54 (76480) - https://sketchapp.com -->
    <title>切片</title>
    <desc>Created with Sketch.</desc>
    <g id="Page-1" stroke="none" stroke-width="1" fill="none" fill-rule="evenodd">
        <g id="首页-故障" transform="translate(-74.000000, -235.000000)">
            <g id="单位设施完好率icon复制" transform="translate(74.000000, 235.000000)">
                <g id="单位设施完好率icon">
                    <circle id="椭圆形-copy-7" fill="#ECE0FE" cx="44" cy="44" r="44"></circle>
                    <path d="M19,61.825 C19,64.125 20.874063,66 23.1729135,66 L64.8270865,66 C67.125937,66 69,64.125 69,61.825 L69,50.375 C69,48.075 67.125937,46.2 64.8270865,46.2 L52.3333333,46.2 L52.3333333,35.25 C52.3333333,33.8 51.1589205,32.65 49.7346327,32.65 C48.3103448,32.65 47.135932,33.825 47.135932,35.25 L47.135932,46.2 L23.197901,46.2 C20.8990505,46.2 19.0249875,48.075 19.0249875,50.375 L19.0249875,61.825 L19,61.825 Z" id="形状" fill="#8660EB" fill-rule="nonzero"></path>
                    <path d="M49.7096452,24.325 C43.6626687,24.325 38.7901049,29.225 38.7901049,35.275 C38.7901049,36.725 39.9645177,37.875 41.3888056,37.875 C42.8130935,37.875 43.9875062,36.7 43.9875062,35.275 C43.9875062,32.1 46.5612194,29.55 49.7096452,29.55 C52.8830585,29.55 55.4317841,32.1 55.4317841,35.275 C55.4317841,36.725 56.6061969,37.875 58.0304848,37.875 C59.4547726,37.875 60.6291854,36.7 60.6291854,35.275 C60.6541729,29.225 55.7566217,24.325 49.7096452,24.325 L49.7096452,24.325 Z" id="路径" fill="#8660EB" fill-rule="nonzero"></path>
                    <path d="M49.7096452,16 C39.0649675,16 30.4442779,24.625 30.4442779,35.275 C30.4442779,36.725 31.6186907,37.875 33.0429785,37.875 C34.4922539,37.875 35.6416792,36.7 35.6416792,35.275 C35.6416792,27.5 41.9385307,21.225 49.6846577,21.225 C57.4307846,21.225 63.7276362,27.525 63.7276362,35.275 C63.7276362,36.725 64.902049,37.875 66.3263368,37.875 C67.7756122,37.875 68.9250375,36.7 68.9250375,35.275 C68.9750125,24.625 60.3543228,16 49.7096452,16 L49.7096452,16 Z" id="路径" fill="#724DDB" fill-rule="nonzero"></path>
                    <path d="M24.1974013,56.1 C24.1974013,54.65 25.3718141,53.5 26.7961019,53.5 C28.2203898,53.5 29.3948026,54.675 29.3948026,56.1 C29.3948026,57.525 28.2203898,58.7 26.7961019,58.7 C25.3718141,58.7 24.1974013,57.55 24.1974013,56.1 Z" id="路径" fill="#FFE501" fill-rule="nonzero"></path>
                    <path d="M33.5677161,56.1 C33.5677161,54.65 34.7421289,53.5 36.1664168,53.5 C37.5907046,53.5 38.7651174,54.675 38.7651174,56.1 C38.7651174,57.525 37.5907046,58.7 36.1664168,58.7 C34.7421289,58.7 33.5677161,57.55 33.5677161,56.1 Z" id="路径" fill="#FFE501" fill-rule="nonzero"></path>
                </g>
            </g>
        </g>
    </g>
</svg>