<?xml version="1.0" encoding="UTF-8"?>
<svg width="195px" height="141px" viewBox="0 0 195 141" version="1.1" xmlns="http://www.w3.org/2000/svg" xmlns:xlink="http://www.w3.org/1999/xlink">
    <!-- Generator: Sketch 54 (76480) - https://sketchapp.com -->
    <title>icon_w2@2x</title>
    <desc>Created with Sketch.</desc>
    <g id="Page-1" stroke="none" stroke-width="1" fill="none" fill-rule="evenodd">
        <g id="列表空白" transform="translate(-90.000000, -156.000000)">
            <g id="icon_w2" transform="translate(90.000000, 156.000000)">
                <g id="报警icon" transform="translate(52.000000, 48.000000)">
                    <path d="M79.1906063,41.7581518 C77.5639191,27.5245387 66.5127054,16.1092939 52.3687481,14 L52,16.4726554 C65.0257822,18.4151954 75.2086701,28.9335114 76.7067744,42.0420163 L79.1906063,41.7581518 Z" id="Oval-8" fill="#CECECE" fill-rule="nonzero"></path>
                    <path d="M52.6733844,34.0164468 L52.6733844,86.6421193 C51.1905716,86.8974572 49.665926,87.0305051 48.1102054,87.0305051 L41.0587626,87.0305051 C26.3120849,87.0305051 14.3575406,75.0759608 14.3575406,60.3292831 C14.3575406,45.5826054 26.3120849,33.6280611 41.0587626,33.6280611 L48.1102054,33.6280611 C49.665926,33.6280611 51.1905716,33.7611089 52.6733844,34.0164468 Z" id="Combined-Shape-Copy" fill="#FDFDFD" transform="translate(33.515462, 60.329283) rotate(-46.000000) translate(-33.515462, -60.329283) "></path>
                    <path d="M61.4030537,44.0342556 C57.1464837,43.3201385 53.9030537,39.6181877 53.9030537,35.1586933 C53.9030537,30.6991989 57.1464837,26.9972481 61.4030537,26.2831309 L61.4030537,29.3477195 C58.8152129,30.0137837 56.9030537,32.3629341 56.9030537,35.1586933 C56.9030537,37.9544524 58.8152129,40.3036029 61.4030537,40.9696671 L61.4030537,44.0342556 Z" id="Combined-Shape" fill="#CECECE" fill-rule="nonzero" transform="translate(57.653054, 35.158693) rotate(139.000000) translate(-57.653054, -35.158693) "></path>
                    <path d="M49.0939121,35.2430887 L41.7577334,35.2430887 C27.7962997,35.2430887 16.4783214,46.5610669 16.4783214,60.5225007 C16.4783214,74.4839345 27.7962997,85.8019127 41.7577334,85.8019127 L49.0939121,85.8019127 C49.8480035,85.8019127 50.5976134,85.768965 51.3413513,85.7035295 L51.3413513,35.3414719 C50.5976134,35.2760364 49.8480035,35.2430887 49.0939121,35.2430887 Z M53.8413513,33.1471574 L53.8413513,87.897844 C52.2986628,88.1634925 50.7124523,88.3019127 49.0939121,88.3019127 L41.7577334,88.3019127 C26.4155878,88.3019127 13.9783214,75.8646463 13.9783214,60.5225007 C13.9783214,45.1803551 26.4155878,32.7430887 41.7577334,32.7430887 L49.0939121,32.7430887 C50.7124523,32.7430887 52.2986628,32.8815089 53.8413513,33.1471574 Z" id="Combined-Shape" fill="#CECECE" fill-rule="nonzero" transform="translate(33.909836, 60.522501) rotate(-47.000000) translate(-33.909836, -60.522501) "></path>
                    <path d="M89.7974941,40.2909476 C89.8558714,39.4307612 89.8851879,38.5661738 89.8851879,37.6981645 C89.8851879,17.5925327 74.1261362,1.04163951 54.1300541,0 L54,2.49661489 C72.6693787,3.46914353 87.3851879,18.9243747 87.3851879,37.6981645 C87.3851879,38.5096883 87.3577858,39.3178183 87.3032315,40.1216723 L89.7974941,40.2909476 Z" id="Oval-9" fill="#CECECE" fill-rule="nonzero"></path>
                </g>
                <g id="装饰">
                    <polygon id="Triangle" fill="#D8D8D8" points="10 45 11 47 9 47"></polygon>
                    <polygon id="Triangle-Copy" fill="#D8D8D8" transform="translate(1.500000, 90.000000) scale(1, -1) translate(-1.500000, -90.000000) " points="1.5 89 3 91 0 91"></polygon>
                    <polygon id="Triangle-Copy-2" fill="#D8D8D8" transform="translate(99.039214, 9.039214) scale(1, -1) rotate(45.000000) translate(-99.039214, -9.039214) " points="99.0392136 7.65533009 100.539214 10.423097 97.5392136 10.423097"></polygon>
                    <path d="M162,72 C159.790861,72 158,70.209139 158,68 C158,65.790861 159.790861,64 162,64 C164.209139,64 166,65.790861 166,68 C166,70.209139 164.209139,72 162,72 Z M162,70 C163.104569,70 164,69.1045695 164,68 C164,66.8954305 163.104569,66 162,66 C160.895431,66 160,66.8954305 160,68 C160,69.1045695 160.895431,70 162,70 Z" id="Oval-7" fill="#EBEBEB" fill-rule="nonzero"></path>
                    <path d="M172,125 C170.343146,125 169,123.656854 169,122 C169,120.343146 170.343146,119 172,119 C173.656854,119 175,120.343146 175,122 C175,123.656854 173.656854,125 172,125 Z M172,123.5 C172.828427,123.5 173.5,122.828427 173.5,122 C173.5,121.171573 172.828427,120.5 172,120.5 C171.171573,120.5 170.5,121.171573 170.5,122 C170.5,122.828427 171.171573,123.5 172,123.5 Z" id="Oval-7-Copy-3" fill="#EBEBEB" fill-rule="nonzero"></path>
                    <path d="M131,18 C128.790861,18 127,16.209139 127,14 C127,11.790861 128.790861,10 131,10 C133.209139,10 135,11.790861 135,14 C135,16.209139 133.209139,18 131,18 Z M131,16 C132.104569,16 133,15.1045695 133,14 C133,12.8954305 132.104569,12 131,12 C129.895431,12 129,12.8954305 129,14 C129,15.1045695 129.895431,16 131,16 Z" id="Oval-7-Copy" fill="#EBEBEB" fill-rule="nonzero"></path>
                    <path d="M39,45 C36.790861,45 35,43.209139 35,41 C35,38.790861 36.790861,37 39,37 C41.209139,37 43,38.790861 43,41 C43,43.209139 41.209139,45 39,45 Z M39,43 C40.1045695,43 41,42.1045695 41,41 C41,39.8954305 40.1045695,39 39,39 C37.8954305,39 37,39.8954305 37,41 C37,42.1045695 37.8954305,43 39,43 Z" id="Oval-7-Copy-2" fill="#EBEBEB" fill-rule="nonzero"></path>
                    <path d="M30,124 C27.2385763,124 25,121.761424 25,119 C25,116.238576 27.2385763,114 30,114 C32.7614237,114 35,116.238576 35,119 C35,121.761424 32.7614237,124 30,124 Z M30,121.5 C31.3807119,121.5 32.5,120.380712 32.5,119 C32.5,117.619288 31.3807119,116.5 30,116.5 C28.6192881,116.5 27.5,117.619288 27.5,119 C27.5,120.380712 28.6192881,121.5 30,121.5 Z" id="Oval-7-Copy-4" fill="#EBEBEB" fill-rule="nonzero"></path>
                    <polygon id="Polygon" fill="#D8D8D8" points="53.5 42 55.8776413 43.7274575 54.9694631 46.5225425 52.0305369 46.5225425 51.1223587 43.7274575"></polygon>
                    <polygon id="Polygon-Copy" fill="#D8D8D8" points="79.5 0 81.8776413 1.72745751 80.9694631 4.52254249 78.0305369 4.52254249 77.1223587 1.72745751"></polygon>
                    <rect id="Rectangle-6" fill="#B4B4B4" x="55" y="5" width="8" height="2" rx="1"></rect>
                    <rect id="Rectangle-6-Copy-2" fill="#B4B4B4" x="146" y="45" width="8" height="2" rx="1"></rect>
                    <rect id="Rectangle-6-Copy-10" fill="#B4B4B4" x="53" y="108" width="8" height="2" rx="1"></rect>
                    <path d="M139.5,130 L143.5,130 C143.776142,130 144,130.223858 144,130.5 L144,130.5 C144,130.776142 143.776142,131 143.5,131 L139.5,131 C139.223858,131 139,130.776142 139,130.5 L139,130.5 C139,130.223858 139.223858,130 139.5,130 Z" id="Rectangle-6-Copy-6" fill="#B4B4B4"></path>
                    <path d="M46.5,64 L50.5,64 C50.7761424,64 51,64.2238576 51,64.5 L51,64.5 C51,64.7761424 50.7761424,65 50.5,65 L46.5,65 C46.2238576,65 46,64.7761424 46,64.5 L46,64.5 C46,64.2238576 46.2238576,64 46.5,64 Z" id="Rectangle-6-Copy-8" fill="#B4B4B4"></path>
                    <rect id="Rectangle-6-Copy-4" fill="#B4B4B4" x="187" y="21" width="8" height="2" rx="1"></rect>
                    <rect id="Rectangle-6-Copy" fill="#B4B4B4" transform="translate(59.000000, 6.000000) rotate(90.000000) translate(-59.000000, -6.000000) " x="55" y="5" width="8" height="2" rx="1"></rect>
                    <rect id="Rectangle-6-Copy-3" fill="#B4B4B4" transform="translate(150.000000, 46.000000) rotate(90.000000) translate(-150.000000, -46.000000) " x="146" y="45" width="8" height="2" rx="1"></rect>
                    <rect id="Rectangle-6-Copy-11" fill="#B4B4B4" transform="translate(57.000000, 109.000000) rotate(90.000000) translate(-57.000000, -109.000000) " x="53" y="108" width="8" height="2" rx="1"></rect>
                    <path d="M142,128.625 L142,132.375 C142,132.720178 141.776142,133 141.5,133 C141.223858,133 141,132.720178 141,132.375 L141,128.625 C141,128.279822 141.223858,128 141.5,128 C141.776142,128 142,128.279822 142,128.625 Z" id="Rectangle-6-Copy-7" fill="#B4B4B4"></path>
                    <path d="M49,62.625 L49,66.375 C49,66.720178 48.7761424,67 48.5,67 C48.2238576,67 48,66.720178 48,66.375 L48,62.625 C48,62.279822 48.2238576,62 48.5,62 C48.7761424,62 49,62.279822 49,62.625 Z" id="Rectangle-6-Copy-9" fill="#B4B4B4"></path>
                    <rect id="Rectangle-6-Copy-5" fill="#B4B4B4" transform="translate(191.000000, 22.000000) rotate(90.000000) translate(-191.000000, -22.000000) " x="187" y="21" width="8" height="2" rx="1"></rect>
                    <rect id="Rectangle-5" fill="#B4B4B4" x="1" y="139" width="7" height="1.5" rx="0.75"></rect>
                    <rect id="Rectangle-5-Copy" fill="#B4B4B4" x="10" y="139" width="17" height="1.5" rx="0.75"></rect>
                    <rect id="Rectangle-5-Copy-3" fill="#B4B4B4" x="172" y="139" width="22" height="1.5" rx="0.75"></rect>
                    <path d="M32.75,139 L169.25,139 C169.664214,139 170,139.335786 170,139.75 L170,139.75 C170,140.164214 169.664214,140.5 169.25,140.5 L32.75,140.5 C32.3357864,140.5 32,140.164214 32,139.75 L32,139.75 C32,139.335786 32.3357864,139 32.75,139 Z" id="Rectangle-5-Copy-2" fill="#B4B4B4"></path>
                </g>
            </g>
        </g>
    </g>
</svg>