<?xml version="1.0" encoding="UTF-8"?>
<svg width="24px" height="24px" viewBox="0 0 24 24" version="1.1" xmlns="http://www.w3.org/2000/svg" xmlns:xlink="http://www.w3.org/1999/xlink">
    <title>liebiao</title>
    <g id="首页" stroke="none" stroke-width="1" fill="none" fill-rule="evenodd">
        <g id="雨淋系统" transform="translate(-339.000000, -54.000000)">
            <g id="导航" transform="translate(0.000000, 44.000000)">
                <g id="liebiao" transform="translate(339.000000, 10.000000)">
                    <path d="M0,0 L24,0 L24,24 L0,24 L0,0 Z" id="bulletpoint-(Background)"></path>
                    <path d="M7.49982262,4.5 L7.49981976,6 L20.9998212,6.00003737 L20.9998212,4.5 L7.49982262,4.5 Z M3.00073242,4.5 L3.00073242,6 L5.24982119,6 L5.24982119,4.5 L3.00073242,4.5 Z M20.9998212,11.2501287 L20.9998212,12.7501287 L7.49981976,12.7500916 L7.49982262,11.2500916 L20.9998212,11.2501287 Z M5.24982119,11.2500916 L5.24982119,12.7500916 L3.00073242,12.7500916 L3.00073242,11.2500916 L5.24982119,11.2500916 Z M20.9998212,18.0000372 L20.9998212,19.5000372 L7.49981976,19.5000372 L7.49982262,18 L20.9998212,18.0000372 Z M5.24982119,18 L5.24982119,19.5000372 L3.00073242,19.5000372 L3.00073242,18 L5.24982119,18 Z" id="bulletpoint" fill="#0099EF"></path>
                </g>
            </g>
        </g>
    </g>
</svg>